<svg width="22" height="22" viewBox="0 0 22 22" fill="none" xmlns="http://www.w3.org/2000/svg">
    <path
        d="M21.2033 0.883218C20.7477 0.427599 20.009 0.427599 19.5534 0.883218L11.0433 9.39334L2.53319 0.883218C2.07758 0.427599 1.33889 0.427599 0.883279 0.883218C0.42766 1.33882 0.42766 2.07752 0.883279 2.53313L9.39337 11.0432L0.883302 19.5533C0.427684 20.009 0.427684 20.7476 0.883302 21.2033C1.33891 21.6589 2.07761 21.6589 2.53321 21.2033L11.0433 12.6931L19.5534 21.2033C20.009 21.6589 20.7477 21.6589 21.2033 21.2033C21.6589 20.7476 21.6589 20.009 21.2033 19.5534L12.6932 11.0432L21.2033 2.53313C21.6589 2.07752 21.6589 1.33882 21.2033 0.883218Z"
        fill="#000000"/>
</svg>
